<svg width="22" height="44" viewBox="0 0 22 44" fill="none" xmlns="http://www.w3.org/2000/svg">
<path fill-rule="evenodd" clip-rule="evenodd" d="M11.0138 0.175947C10.7086 0.0452057 10.3776 -0.0140212 10.046 0.0027953C9.71441 0.0196118 9.39106 0.112026 9.10067 0.272973C8.81028 0.433919 8.56055 0.659135 8.37056 0.9314C8.18057 1.20366 8.05535 1.51577 8.00449 1.84385C7.94655 2.34085 7.78642 2.8205 7.53415 3.25263C7.3164 3.6119 6.98977 3.97989 6.41491 4.51553C5.28261 5.56504 4.59235 6.82141 4.40726 8.17576C4.24585 9.42219 4.49505 10.6873 5.11713 11.7794C6.18846 13.7107 8.3616 15.2436 10.6763 15.2436C13.6856 15.2436 17.42 13.1403 17.42 9.13382C17.42 7.08052 16.5011 5.15133 15.3601 3.66416C14.2104 2.16828 12.6535 0.879252 11.0138 0.178125V0.175947ZM9.37631 7.70762C10.0513 7.0827 10.7089 6.40117 11.2337 5.55198C11.4689 5.78714 11.6954 6.0419 11.9066 6.31625C12.6839 7.33092 13.065 8.34778 13.065 9.13382C13.065 9.56277 12.8777 9.95253 12.4553 10.2922C11.9442 10.6817 11.3188 10.8914 10.6763 10.8888C10.2081 10.8888 9.36325 10.4577 8.92339 9.66511C8.76038 9.39756 8.68927 9.08407 8.72089 8.77237C8.75137 8.53721 8.87984 8.16923 9.37631 7.70762ZM4.355 17.4211C3.19998 17.4211 2.09227 17.8799 1.27555 18.6966C0.458829 19.5132 0 20.6209 0 21.7759V39.1952C0 40.3501 0.458829 41.4578 1.27555 42.2745C2.09227 43.0912 3.19998 43.55 4.355 43.55H17.42C18.575 43.55 19.6827 43.0912 20.4994 42.2745C21.3162 41.4578 21.775 40.3501 21.775 39.1952V21.7759C21.775 20.6209 21.3162 19.5132 20.4994 18.6966C19.6827 17.8799 18.575 17.4211 17.42 17.4211H4.355ZM4.355 21.7759H17.42V39.1952H4.355V21.7759Z" fill="#E1E1E1"/>
</svg>
