<svg width="613" height="270" viewBox="0 0 613 270" fill="none" xmlns="http://www.w3.org/2000/svg">
<path d="M156.791 270V271H157.791V270H156.791ZM99.3911 270H98.3911V271H99.3911V270ZM99.3911 181.03H100.391V180.03H99.3911V181.03ZM57.9811 181.03V180.03H56.9811V181.03H57.9811ZM57.9811 270V271H58.9811V270H57.9811ZM0.581055 270H-0.418945V271H0.581055V270ZM57.9811 136.75H56.9811V137.75H57.9811V136.75ZM99.3911 136.75V137.75H100.391V136.75H99.3911ZM96.9311 42.04L96.1628 42.6802L96.1919 42.715L96.224 42.7471L96.9311 42.04ZM60.0311 42.04L59.324 41.3329L59.2919 41.3649L59.2628 41.3998L60.0311 42.04ZM105.951 1.63C122.727 1.63 135.13 6.09158 143.352 14.8447C151.586 23.6095 155.791 36.8491 155.791 54.75H157.791C157.791 36.5709 153.523 22.7505 144.81 13.4753C136.086 4.18842 123.068 -0.370003 105.951 -0.370003V1.63ZM155.791 54.75V270H157.791V54.75H155.791ZM156.791 269H99.3911V271H156.791V269ZM100.391 270V181.03H98.3911V270H100.391ZM99.3911 180.03H57.9811V182.03H99.3911V180.03ZM56.9811 181.03V270H58.9811V181.03H56.9811ZM57.9811 269H0.581055V271H57.9811V269ZM1.58105 270V54.75H-0.418945V270H1.58105ZM1.58105 54.75C1.58105 36.8491 5.78626 23.6095 14.0199 14.8447C22.2425 6.09158 34.6451 1.63 51.4211 1.63V-0.370003C34.3037 -0.370003 21.2863 4.18842 12.5622 13.4753C3.84918 22.7505 -0.418945 36.5709 -0.418945 54.75H1.58105ZM51.4211 1.63H105.951V-0.370003H51.4211V1.63ZM57.9811 137.75H99.3911V135.75H57.9811V137.75ZM100.391 136.75V47.78H98.3911V136.75H100.391ZM100.391 47.78C100.391 45.3108 99.4531 43.1478 97.6382 41.3329L96.224 42.7471C97.689 44.2122 98.3911 45.8759 98.3911 47.78H100.391ZM97.6993 41.3998C96.1374 39.5255 94.0762 38.58 91.6011 38.58V40.58C93.4993 40.58 94.9914 41.2745 96.1628 42.6802L97.6993 41.3998ZM91.6011 38.58H65.7711V40.58H91.6011V38.58ZM65.7711 38.58C63.3018 38.58 61.1389 39.518 59.324 41.3329L60.7382 42.7471C62.2033 41.282 63.8669 40.58 65.7711 40.58V38.58ZM59.2628 41.3998C57.7425 43.2242 56.9811 45.3656 56.9811 47.78H58.9811C58.9811 45.8211 59.5863 44.1357 60.7993 42.6802L59.2628 41.3998ZM56.9811 47.78V136.75H58.9811V47.78H56.9811ZM251.975 165.86V164.86H250.975V165.86H251.975ZM251.975 270V271H252.975V270H251.975ZM194.575 270H193.575V271H194.575V270ZM194.575 4.73V3.73H193.575V4.73H194.575ZM314.295 4.73H315.295V3.73H314.295V4.73ZM314.295 54.34V55.34H315.295V54.34H314.295ZM251.975 54.34V53.34H250.975V54.34H251.975ZM251.975 117.89H250.975V118.89H251.975V117.89ZM310.195 117.89H311.195V116.89H310.195V117.89ZM310.195 165.86V166.86H311.195V165.86H310.195ZM250.975 165.86V270H252.975V165.86H250.975ZM251.975 269H194.575V271H251.975V269ZM195.575 270V4.73H193.575V270H195.575ZM194.575 5.73H314.295V3.73H194.575V5.73ZM313.295 4.73V54.34H315.295V4.73H313.295ZM314.295 53.34H251.975V55.34H314.295V53.34ZM250.975 54.34V117.89H252.975V54.34H250.975ZM251.975 118.89H310.195V116.89H251.975V118.89ZM309.195 117.89V165.86H311.195V117.89H309.195ZM310.195 164.86H251.975V166.86H310.195V164.86ZM400.325 222.44H399.325V223.44H400.325V222.44ZM463.875 222.44H464.875V221.44H463.875V222.44ZM463.875 270V271H464.875V270H463.875ZM342.925 270H341.925V271H342.925V270ZM342.925 4.73V3.73H341.925V4.73H342.925ZM463.875 4.73H464.875V3.73H463.875V4.73ZM463.875 51.47V52.47H464.875V51.47H463.875ZM400.325 51.47V50.47H399.325V51.47H400.325ZM400.325 113.79H399.325V114.79H400.325V113.79ZM459.775 113.79H460.775V112.79H459.775V113.79ZM459.775 158.89V159.89H460.775V158.89H459.775ZM400.325 158.89V157.89H399.325V158.89H400.325ZM400.325 223.44H463.875V221.44H400.325V223.44ZM462.875 222.44V270H464.875V222.44H462.875ZM463.875 269H342.925V271H463.875V269ZM343.925 270V4.73H341.925V270H343.925ZM342.925 5.73H463.875V3.73H342.925V5.73ZM462.875 4.73V51.47H464.875V4.73H462.875ZM463.875 50.47H400.325V52.47H463.875V50.47ZM399.325 51.47V113.79H401.325V51.47H399.325ZM400.325 114.79H459.775V112.79H400.325V114.79ZM458.775 113.79V158.89H460.775V113.79H458.775ZM459.775 157.89H400.325V159.89H459.775V157.89ZM399.325 158.89V222.44H401.325V158.89H399.325ZM549.475 221.62H548.475V222.62H549.475V221.62ZM612.205 221.62H613.205V220.62H612.205V221.62ZM612.205 270V271H613.205V270H612.205ZM492.075 270H491.075V271H492.075V270ZM492.075 4.73V3.73H491.075V4.73H492.075ZM549.475 4.73H550.475V3.73H549.475V4.73ZM549.475 222.62H612.205V220.62H549.475V222.62ZM611.205 221.62V270H613.205V221.62H611.205ZM612.205 269H492.075V271H612.205V269ZM493.075 270V4.73H491.075V270H493.075ZM492.075 5.73H549.475V3.73H492.075V5.73ZM548.475 4.73V221.62H550.475V4.73H548.475Z" fill="#E1E1E1"/>
</svg>
