<svg width="46" height="46" viewBox="0 0 46 46" fill="none" xmlns="http://www.w3.org/2000/svg">
<path fill-rule="evenodd" clip-rule="evenodd" d="M22.7511 45.5021C35.3161 45.5021 45.5021 35.3161 45.5021 22.7511C45.5021 10.186 35.3161 0 22.7511 0C10.186 0 0 10.186 0 22.7511C0 35.3161 10.186 45.5021 22.7511 45.5021ZM44.5021 22.7511C44.5021 34.7639 34.7639 44.5021 22.7511 44.5021C10.7383 44.5021 1 34.7639 1 22.7511C1 10.7383 10.7383 1 22.7511 1C34.7639 1 44.5021 10.7383 44.5021 22.7511ZM22.1266 6.59539C22.3727 6.58291 22.6183 6.62686 22.8448 6.72387V6.72549C24.0615 7.24575 25.2167 8.20226 26.0699 9.31227C26.9166 10.4158 27.5984 11.8473 27.5984 13.371C27.5984 16.3439 24.8273 17.9047 22.5943 17.9047C20.8767 17.9047 19.2642 16.7672 18.4692 15.3341C18.0076 14.5237 17.8227 13.585 17.9424 12.6601C18.0798 11.6551 18.592 10.7228 19.4322 9.94402C19.8588 9.54655 20.1011 9.27349 20.2627 9.0069C20.4499 8.68624 20.5687 8.33032 20.6117 7.96152C20.6495 7.71807 20.7424 7.48648 20.8834 7.28445C21.0244 7.08242 21.2097 6.9153 21.4251 6.79587C21.6406 6.67644 21.8806 6.60787 22.1266 6.59539ZM23.008 10.7131C22.6185 11.3432 22.1306 11.849 21.6297 12.3127C21.2613 12.6552 21.166 12.9283 21.1433 13.1028C21.1199 13.3341 21.1726 13.5667 21.2936 13.7652C21.62 14.3533 22.2469 14.6733 22.5943 14.6733C23.0711 14.6752 23.5352 14.5195 23.9144 14.2305C24.2279 13.9785 24.3668 13.6893 24.3668 13.371C24.3668 12.7877 24.0841 12.0332 23.5072 11.2802C23.3505 11.0766 23.1825 10.8876 23.008 10.7131ZM15.6186 20.4669C16.2246 19.8609 17.0466 19.5204 17.9037 19.5204H27.5984C28.4555 19.5204 29.2775 19.8609 29.8835 20.4669C30.4895 21.0729 30.83 21.8949 30.83 22.7519V35.6777C30.83 36.5348 30.4895 37.3567 29.8835 37.9627C29.2775 38.5687 28.4555 38.9092 27.5984 38.9092H17.9037C17.0466 38.9092 16.2246 38.5687 15.6186 37.9627C15.0125 37.3567 14.6721 36.5348 14.6721 35.6777V22.7519C14.6721 21.8949 15.0125 21.0729 15.6186 20.4669ZM27.5984 22.7519H17.9037V35.6777H27.5984V22.7519Z" fill="#E1E1E1"/>
</svg>
