<svg width="69" height="69" viewBox="0 0 69 69" fill="none" xmlns="http://www.w3.org/2000/svg">
<path fill-rule="evenodd" clip-rule="evenodd" d="M34.3125 68.625C53.2628 68.625 68.625 53.2628 68.625 34.3125C68.625 15.3622 53.2628 0 34.3125 0C15.3622 0 0 15.3622 0 34.3125C0 53.2628 15.3622 68.625 34.3125 68.625ZM63.625 34.3125C63.625 50.5013 50.5013 63.625 34.3125 63.625C18.1237 63.625 5 50.5013 5 34.3125C5 18.1237 18.1237 5 34.3125 5C50.5013 5 63.625 18.1237 63.625 34.3125ZM33.9703 12.5403C34.3021 12.5235 34.6334 12.5827 34.9388 12.7134V12.7156C36.5796 13.4168 38.1376 14.7058 39.2882 16.2017C40.43 17.6888 41.3495 19.618 41.3495 21.6713C41.3495 25.6778 37.6125 27.7811 34.601 27.7811C32.2847 27.7811 30.11 26.2482 29.0379 24.3169C28.4153 23.2248 28.166 21.9597 28.3275 20.7133C28.5127 19.3589 29.2035 18.1025 30.3366 17.053C30.9118 16.5174 31.2387 16.1494 31.4566 15.7901C31.7091 15.358 31.8693 14.8784 31.9273 14.3813C31.9782 14.0533 32.1035 13.7412 32.2936 13.4689C32.4837 13.1966 32.7337 12.9714 33.0243 12.8105C33.3149 12.6495 33.6384 12.5571 33.9703 12.5403ZM35.1588 18.0895C34.6337 18.9387 33.9756 19.6202 33.3001 20.2451C32.8033 20.7067 32.6747 21.0747 32.6442 21.3099C32.6126 21.6216 32.6837 21.9351 32.8469 22.2026C33.287 22.9952 34.1325 23.4263 34.601 23.4263C35.244 23.4289 35.8699 23.2192 36.3813 22.8297C36.804 22.49 36.9914 22.1003 36.9914 21.6713C36.9914 20.8853 36.6101 19.8684 35.8322 18.8538C35.6208 18.5794 35.3942 18.3246 35.1588 18.0895ZM25.1935 31.2341C26.0108 30.4174 27.1193 29.9586 28.2752 29.9586H41.3495C42.5054 29.9586 43.6139 30.4174 44.4312 31.2341C45.2485 32.0507 45.7077 33.1584 45.7077 34.3134V51.7327C45.7077 52.8876 45.2485 53.9953 44.4312 54.812C43.6139 55.6287 42.5054 56.0875 41.3495 56.0875H28.2752C27.1193 56.0875 26.0108 55.6287 25.1935 54.812C24.3762 53.9953 23.9171 52.8876 23.9171 51.7327V34.3134C23.9171 33.1584 24.3762 32.0507 25.1935 31.2341ZM41.3495 34.3134H28.2752V51.7327H41.3495V34.3134Z" fill="#222222"/>
</svg>
